<svg viewBox="0 0 512 512" xml:space="preserve" xmlns="http://www.w3.org/2000/svg"><path d="M465.502 405.424c-1.061-9.484-5.17-18.139-11.703-24.881l26.646 17.551a10.79 10.79 0 0 0 5.951 1.803c1.939 0 3.885-.531 5.633-1.596 3.613-2.199 5.582-6.18 5.139-10.387a61.473 61.473 0 0 0-26.867-44.631l-3.262-2.195 2.355-5.283-75.551-36.244-26.832-45.54c-9.227-20.246-27.654-35.253-49.35-40.169l-36.984-8.377v-10.609c16.984-7.756 29.752-23.173 33.857-41.814 9.994-1.711 17.633-10.414 17.633-20.89a21.153 21.153 0 0 0-5.803-14.572V72.33c0-29-23.482-52.61-52.43-52.834-3.633-4.056-8.902-6.633-14.799-6.645h-.197c-19.377 0-37.751 7.685-51.754 21.649-14.345 14.306-22.244 33.221-22.244 53.261v30.084a21.183 21.183 0 0 0-5.568 14.316c0 10.476 7.638 19.179 17.633 20.89 4.143 18.811 17.105 34.339 34.319 42.023v10.4l-36.984 8.378c-21.695 4.915-40.123 19.923-49.349 40.169l-26.832 45.539-75.552 36.244 2.356 5.285-3.262 2.193a61.466 61.466 0 0 0-26.866 44.631c-.444 4.207 1.523 8.186 5.136 10.385a10.808 10.808 0 0 0 5.634 1.598c2.066 0 4.13-.604 5.951-1.803l11.573-7.623a42.902 42.902 0 0 0-1.823 8.43 42.422 42.422 0 0 0 1.898 18.109H11.735v82.139h488.531V417.01h-35.059c.609-3.748.738-7.633.295-11.586zm-38.672 37.199-158.691 10.98-3.574-34.074L419.83 377.66c8.545-.865 16.934 1.611 23.658 6.98 6.816 5.445 11.105 13.223 12.076 21.895 1.999 17.867-10.884 34.035-28.734 36.088zm-185.074 10.752-34.029.441-34.529 3.84c-.117-12.723 11.747-24.09 27.507-25.854l38.161-4.268 2.89 25.841zm-42.163-31.51c-14.416 1.613-26.337 9.621-32.293 20.273L79.978 436.1c-17.848-2.051-30.73-18.217-28.733-36.086 1.859-16.555 15.799-29.039 32.425-29.039 1.11 0 2.223.055 3.312.162l159.306 42.965-8.593 2.316.131 1.172-38.233 4.275zm-25.898-37.699-74.584-20.113 51.434-20.516 23.15-30.68v71.309zm78.347 70.553-3.455-30.881 6.2-1.672 3.37 32.129-6.115.424zm235.181-65.752a.76.76 0 0 1-.393.791c-.447.273-.777.055-.885-.016L454.82 369.24l8.391-18.672 1.506 1.012a51.49 51.49 0 0 1 22.506 37.387zM315.9 142.211c.023-.702.053-1.403.053-2.111v-.699a17.238 17.238 0 0 0 5.748-4.061 11.244 11.244 0 0 1-5.801 6.871zm.465-69.881v51.269c0 .835-.148 1.634-.412 2.38v-.187a32.291 32.291 0 0 0-5.621-18.247 22.351 22.351 0 0 1-3.889-12.621v-7.768c0-12.436-10.117-22.553-22.516-22.553l-6.904-.049a44.826 44.826 0 0 0 1.967-13.172V32.645c0-.963-.092-1.901-.227-2.828 21.161 2.596 37.602 20.664 37.602 42.513zM194.941 87.761c0-17.363 6.856-33.764 19.306-46.18 12.115-12.083 27.981-18.73 44.693-18.73h.272c5.393.011 9.779 4.404 9.779 9.794v18.737c0 19.279-15.685 34.965-34.964 34.965-21.195 0-38.439 17.244-38.439 38.439v.535a8.866 8.866 0 0 1-.646-3.334V87.761zm-5.342 46.644a18.667 18.667 0 0 0 5.987 4.543v1.152c0 .708.029 1.409.054 2.111-3.06-1.512-5.341-4.371-6.041-7.806zm15.987 5.695v-15.313c0-15.682 12.758-28.439 28.439-28.439 16.338 0 30.667-8.757 38.542-21.825l11.322.081c6.922 0 12.553 5.631 12.553 12.553v7.768a32.298 32.298 0 0 0 5.623 18.249 22.336 22.336 0 0 1 3.887 12.619V140.1c0 27.671-22.512 50.184-50.183 50.184-27.67 0-50.183-22.513-50.183-50.184zm50.184 60.184a60.09 60.09 0 0 0 14.908-1.871v7.875a37.555 37.555 0 0 1-29.353 0v-7.769a60.044 60.044 0 0 0 14.445 1.765zM125.23 307.26l28.513-48.393.25-.482c7.905-17.531 23.814-30.533 42.557-34.78l39.181-8.874a47.52 47.52 0 0 0 20.27 4.557 47.497 47.497 0 0 0 20.272-4.558l39.182 8.875c18.742 4.247 34.652 17.249 42.559 34.78l28.762 48.875 69.527 33.354-12.879 28.881.268.119-1.15 2.559c-7.393-3.801-15.738-5.355-24.186-4.41l-.379.041-79.666 21.484v-76.432l23.15 30.682 51.65 20.602 3.705-9.289-49.057-19.566-29.449-39.029v-14.328h-10v110.057l-62.818 16.941-81.795-22.061V281.926h-10v14.328l-29.449 39.029-65.001 25.926a42.433 42.433 0 0 0-12.838 3.408l-10.705-24.004 69.526-33.353zm-99.173 82.482c-.108.07-.439.289-.885.016-.446-.271-.404-.662-.391-.791a51.482 51.482 0 0 1 22.504-37.387l1.506-1.014 8.391 18.674-31.125 20.502zm464.209 37.268v62.139H21.735V427.01h26.298c6.734 10.264 17.813 17.572 30.936 19.039l84.754 5.867a30.148 30.148 0 0 0-.337 8.928c.45 4.021 4.068 6.988 8.293 6.988.334 0 .671-.02 1.011-.057l35.414-3.963 34.842-.451.224 1.996 184.46-12.766.211-.02c15.76-1.764 28.563-11.953 34.439-25.563h27.986z" fill="#cdeee0" class="fill-000000"></path><path d="M231.462 133.359a3.608 3.608 0 0 1-3.603-3.604h-10c0 7.501 6.103 13.604 13.603 13.604 7.501 0 13.604-6.103 13.604-13.604h-10a3.607 3.607 0 0 1-3.604 3.604zM280.539 143.359c7.502 0 13.604-6.103 13.604-13.604h-10a3.607 3.607 0 0 1-3.604 3.604 3.608 3.608 0 0 1-3.604-3.604h-10c.001 7.501 6.104 13.604 13.604 13.604zM251.001 253.799h10v134.949h-10zM381.996 59.759h10v15.049h-10zM381.996 85.484h10v15.048h-10zM366.611 75.146h15.047v10h-15.047zM392.334 75.146h15.049v10h-15.049zM117.11 186.515h10v15.048h-10zM117.11 212.239h10v15.048h-10zM101.724 201.901h15.048v10h-15.048zM127.448 201.901h15.048v10h-15.048z" fill="#cdeee0" class="fill-000000"></path></svg>