<svg viewBox="0 0 48 48" xml:space="preserve" xmlns="http://www.w3.org/2000/svg"><path d="M47.052 25.281H25.271l1.599-.967c.032-.022 1.998-1.31 2.897-2.582.111-.181.191-.379.286-.57a8.207 8.207 0 0 0 1.178-4.241 8.256 8.256 0 0 0-8.255-8.254c-1.158 0-2.25.256-3.248.689-.542.266-1.589.827-1.589.827l-4.506 2.742-8.052 4.47h.008a9.446 9.446 0 0 0-4.294 4.722l-.005-.014s-1.714 3.323-.999 7.399c.005.031.013.062.018.096.035.188.069.377.115.57l.005-.01a9.43 9.43 0 0 0 .663 1.895s.113.229.312.576a13.323 13.323 0 0 0 2.413 3.059c.518.451 1.649 1.391 2.683 1.916 1.682.82 4.349 1.662 8.222 1.719v.01H35.746l11.123-12.77.002-.006.185-.21v-.021l.832-1.045h-.836zM35.345 36.828H14.823v.012c-1.292-.008-4.168-.16-6.856-1.248a8.51 8.51 0 0 1-.597-.297l-.028-.018a6.408 6.408 0 0 1-.721-.473l-.001.008c-.058-.045-.124-.086-.179-.133-.014-.01-.016-.016-.028-.027-.097-.07-.196-.139-.291-.213a10.69 10.69 0 0 1-.647-.55C3.888 32.43 3.293 31 3.293 31a6.95 6.95 0 0 1-.625-2.119c0-.002-.001-.002-.002-.002l-.001-.014a6.84 6.84 0 0 1-.056-.768c-.206-3.324 1.125-5.486 1.125-5.486l.006.005c1.145-2.32 3.524-3.922 6.287-3.922 3.587 0 6.541 2.691 6.967 6.163.015.253.043 1.088-.185 1.62-.278.728-.816 1.808-1.723 2.444a2.763 2.763 0 0 1-.243.176c-.032.02-.065.029-.098.051l-.028.02c-.011.006-.023.008-.035.012-1.74 1.018-3.505.383-3.505.383l.001-.006a3.171 3.171 0 0 1-1.054-.439c-.037-.025-.073-.055-.109-.08a3.162 3.162 0 0 1-1.321-2.565 3.15 3.15 0 0 1 1.63-2.753l-.005-.009s.821-.608 1.827-.236c.012.003.017.008.029.013a.4.4 0 0 1 .042.02c.218.091.342.18.395.266.334.293.557.71.557 1.19 0 .497-.242.919-.601 1.208-.299.212-.507.543-.507.937 0 .645.523 1.168 1.167 1.168.356 0 .659-.172.869-.426l.004.003s.41-.479.58-.704c.013-.02.027-.036.041-.055l.027-.037c.002-.003-.001-.007 0-.012a3.677 3.677 0 0 0 .654-2.083 3.833 3.833 0 0 0-3.832-3.833c-.133 0-.258.033-.387.048v-.004c-.012.001-.024.006-.037.007a3.762 3.762 0 0 0-.755.168c-2.242.641-3.891 2.673-3.891 5.12 0 2.104 1.221 3.902 2.981 4.783l-.01.018.196.082c.08.037.159.068.24.102.356.146.834.334 1.037.381 0 0 2.95.877 6.348-1.354l.001.008.252-.17c.003-.004.006-.006.009-.006l1.644-1.109 2.766-1.793h21.449l-8.069 9.417z" fill="#cdeee0" class="fill-241f20"></path></svg>