<svg viewBox="0 0 64 64" xml:space="preserve" xmlns="http://www.w3.org/2000/svg"><path d="M62.659 31.143H41.652c-.727 0 0-.672 0-.672l-.008-.002c.332-.306.593-.589.782-.804 3.353-4.425.495-11.014.056-11.959-1.567-2.757-3.473-4.272-5.387-5.044-.148-.055-.292-.105-.465-.18a20.726 20.726 0 0 0-2.98-.852c-4.868-.727-9.481 1.551-9.521 1.571-4.208 2.403-14.943 8.719-19.736 13.297-.234.219-.464.446-.687.687-.176.186-.338.366-.49.544-.04.049-.083.092-.121.142a9.788 9.788 0 0 0-.393.511l.032-.014a13.435 13.435 0 0 0-2.18 4.652c-1.52 4.786.112 15.48 9.115 18.852.399.131 2.14.642 4.755.642h24.658c.854-.034 2.903-.312 4.87-2.067 0-.002 0-.002.003-.003l18.349-16.41.527-.47c2.605-2.333-.172-2.421-.172-2.421zM24.368 17.02c.059-.035 8.917-5.139 13.655.873.625.865 1.282 1.92 1.788 3.064.048.165 1.424 5.084-.852 7.618-.023.022-.04.048-.063.069-.051.055-.115.101-.168.151a7.79 7.79 0 0 1-.646.551l-9.904 7.402c.238-4.306-1.529-8.61-2.423-10.042-2.289-3.313-5.517-4.409-7.494-4.774-.616-.108-1.77-.128-1.77-.128l7.877-4.784zm32.02 18.686L43.491 47.425c-2.001 1.816-4.122 2.136-5.067 2.181H13.849c-1.928 0-3.959-.713-4.142-.778a17.65 17.65 0 0 1-1.872-1.043c-7.04-4.507-4.927-13.113-4.584-14.341.008-.021.012-.04.019-.061.016-.059.029-.1.029-.1l-.002-.001C4.811 28.491 8.378 25 15.092 24.797c.839.016 3.268.214 5.429 1.851.532.434 1.063.943 1.584 1.559 1.03 1.331 3.421 5.206 2.332 9.686-.878 2.937-2.15 4.207-3.904 5.388-1.756 1.182-5.237 2.271-8.508.272-1.905-1.303-3.358-3.541-3.087-6.509.273-2.968 3.331-5.116 6.054-4.48 2.725.635 4.33 4.722 1.392 6.357-1.384.588-2.22.239-2.768-.51l-.001.003s-.788-.734-1.787-.281c-.99.451-.672 1.859-.667 1.882 1.079 1.586 3.152 2.774 6.26 1.677a4.808 4.808 0 0 0 1.784-1.124l.007.001.114-.12c.105-.11.205-.226.3-.346 1.07-1.318 3.581-5.282-.414-9.762-2.33-1.867-9.543-3.871-12.557 4.171a8.214 8.214 0 0 0-.299.826c-.014.041-.029.074-.043.115.003.002.003 0 .005.002-.529 1.821-.527 4.046.562 6.523 2.422 5.51 9.413 6.991 14.499 4.268a11.608 11.608 0 0 0 2.497-1.805l-.004.006 12.29-9.64s.859-.776 2.177-.776h18.024c1.754 0 .232 1.48.025 1.675z" fill="#7fffd4" class="fill-241f20"></path></svg>